<svg xmlns="http://www.w3.org/2000/svg" viewBox="0 0 210 210" fill="black">
    <title>HyperionU Logo</title>
    <path d="M43.522 107.458c-1.324-1.581-1.318-2.938-.235-4.716 
        3.434-5.644 6.655-11.42 9.935-17.158 3.046-5.331 6.057-10.683 
        9.094-16.019 3.604-6.331 7.208-12.663 10.861-18.965.187-.322.829-.525 
        1.261-.528 4.575-.038 9.151-.023 13.727-.023 15.297 0 30.593.033 45.889-.049 
        1.667-.009 2.436.585 3.204 1.969 4.026 7.259 8.147 14.464 12.263 
        21.672 3.55 6.218 7.14 12.413 10.704 18.622 2.421 4.218 4.828 8.443 7.275 
        12.725l-31.369 54.957h-6.907c-17.911 0-35.822-.033-53.733.055-1.64.008-2.421-.592-3.147-1.883a3273.917 
        3273.917 0 0 0-12.282-21.662c-3.722-6.509-7.502-12.984-11.228-19.492-1.786-3.121-3.504-6.281-5.312-9.505Zm67.848 
        36.901-1.983.828c1.246.873 1.777-.026 2.528-.778l.425-.129-.081-.231c-.231.096-.461.192-.889.31ZM97.947 
        65.9l2.395-.927c-1.028-.576-1.028-.576-2.935.874l-.104.266a3.25 3.25 0 0 1 .644-.213Zm62.494 
        33.343.263.105c-.063-.149-.127-.298-.211-.639-.165-.245-.345-.48-.491-.736-2.627-4.593-5.255-9.186-7.871-13.785-4.102-7.213-8.194-14.431-12.293-21.645-.714-1.256-1.442-2.504-2.163-3.756.062 
        2.458.291 4.812.606 7.154a667.123 667.123 0 0 0 1.567 10.816c.047.31.255.745.502.851 
        2.15.923 4.326 1.783 6.612 2.71l-.993 7.65c2.596 2.037 5.135 4.042 7.69 6.027 2.218 1.723 
        4.454 3.421 6.782 5.248Zm-66.629-3.394 3.234 4.751-18.699 4.285.036.239 18.656 4.266-6.667 
        9.992.186.146 9.822-6.705 4.278 22.447.23.038 4.312-22.496 9.819 6.74.164-.164-6.66-10.038a88031.62 
        88031.62 0 0 0 18.706-4.242l-.038-.238-18.654-4.266 6.667-9.995-.213-.191-9.804 
        6.7-4.3-22.521-.207.04-4.308 22.469-9.818-6.686-.201.229c1.147 1.668 2.294 3.336 
        3.459 5.2Zm13.067 40.421-1.335 6.746c.55-.208.948-.348 1.338-.509 3.84-1.584 7.696-3.129 
        11.508-4.776 1.994-.862 4.089-1.655 5.825-2.918 4.065-2.957 7.946-6.171 11.886-9.301.588-.467 
        1.461-.972 1.572-1.578.496-2.699.76-5.442 1.114-8.168.216-1.661.444-3.321.665-4.981.242-1.822.482-3.643.738-5.581l-24.216 5.518 11.125 16.555-.273.234-16.204-11.127c-1.257 
        6.604-2.5 13.129-3.743 19.886Zm7.317-65.757-8.624-3.494 5.043 26.577 16.374-11.201.156.278-11.179 16.599 24.205 5.511c-.321-2.646-.602-5.12-.925-7.587-.396-3.02-.766-6.047-1.282-9.047-.158-.921.187-1.979-.85-2.768-3.699-2.811-7.316-5.733-10.971-8.603-1.271-.998-2.451-2.205-3.873-2.897-2.556-1.246-5.264-2.175-8.074-3.368Zm-14.378 
        50.465-.871-4.589-16.22 11.123-.242-.25 11.113-16.542-24.316-5.538c.346 2.444.685 
        4.688.978 6.939.455 3.493.857 6.993 1.338 10.482.082.597.295 1.326.709 1.697 1.168 
        1.046 2.481 1.925 3.722 2.891 2.89 2.25 5.743 4.549 8.667 6.753 1.545 1.165 3.133 
        2.314 4.835 3.213 1.697.895 3.561 1.466 5.349 2.186 3.011 1.215 6.02 2.435 9.087 
        3.676-.877-4.848-1.712-9.583-2.598-14.308-.471-2.509-1.03-5.001-1.551-7.733ZM83.481 
        76.725c-3.425 2.671-6.871 5.314-10.253 8.037-.592.476-1.198 1.24-1.32 1.954-.477 
        2.792-.761 5.617-1.12 8.43-.404 3.169-.81 6.339-1.228 9.603l24.049-5.478-11.218-16.654.176-.238 
        16.384 11.223 5.038-26.481c-.504.251-.869.447-1.246.617-6.401 2.895-13.362 4.557-19.262 8.987Zm.186-4.758c1.818-1.319 
        3.66-2.607 5.449-3.965 2.198-1.669 4.352-3.397 6.534-5.106l-19.485-8.013-2.83 
        21.288c3.46-1.434 6.793-2.815 10.332-4.204Zm-.07 66.439L73.29 134.26l2.931 20.911 
        19.7-8.152c-1.527-1.199-2.793-2.281-4.146-3.237-2.609-1.842-4.776-4.383-8.178-5.376Zm64.462-44.511-2.443-1.838c-2.188 
        8.576-2.126 17.233.013 25.845l16.429-12.998c-1.793-1.426-3.485-2.789-5.195-4.129-2.883-2.257-5.776-4.499-8.804-6.88Zm-97.666 
        13.353 13.744 10.638c2.459-8.67 1.456-17.206-.29-25.731l-16.323 12.799c.927.731 1.831 1.443 2.869 2.294Zm84.993-37.81c-.089-.989-.135-1.984-.275-2.965-.549-3.852-1.127-7.7-1.695-11.558l-19.311 
        8.034c.185.222.275.374.404.476 1.663 1.333 3.314 2.68 5.002 3.979 1.578 1.213 3.063 2.66 4.824 3.498 3.845 1.83 7.84 3.338 12.012 5.077a405.793 405.793 0 0 1-.961-6.541Zm-19.341 76.093-1.871 1.651 19.35 7.899 2.813-21.077c-3.098 1.276-6.122 2.49-9.119 3.77-1.148.491-2.327.999-3.328 1.729-2.611 1.906-5.13 3.938-7.845 6.028ZM86.333 55.343c3.325 1.395 6.708 2.664 9.952 4.23 2.082 1.004 3.496.39 4.986-1.043 1.063-1.023 2.315-1.845 3.494-2.766 1.481 1.197 2.882 2.313 4.266 3.451 1.176.968 2.194 1.392 3.853.583 3.496-1.705 7.19-2.994 10.792-4.48 1.71-.706 3.396-1.471 5.335-2.314H80.71c1.904.815 3.661 1.567 5.623 2.339Zm38.983 100.111c-4.455-1.844-8.907-3.697-13.372-5.518-.556-.227-1.114-.293-1.697.217-1.414 1.236-2.894 2.397-4.393 3.527-.283.214-.917.342-1.148.174-1.376-1.009-2.618-2.213-4.037-3.148-.687-.453-1.106-1.554-2.427-.973-4.221 1.857-8.515 3.544-12.778 5.303-1.463.604-2.918 1.227-4.589 1.93h48.083c-1.304-.571-2.368-1.037-3.642-1.512Zm-71.134-40.947-5.178-4.022-.245.216 23.111 40.485c.217-.603.275-1.095.207-1.569-.323-2.246-.71-4.483-1.02-6.73a379.829 379.829 0 0 1-1.051-8.315c-.16-1.387-.771-2.19-2.177-2.611-1.748-.524-3.406-1.35-5.047-2.023.332-2.471.69-4.752.905-7.048.046-.495-.287-1.219-.682-1.534-2.862-2.281-5.785-4.484-8.823-6.849Zm15.053-36.608c.166-.115.46-.211.479-.348.378-2.634.723-5.272 1.075-7.91.226-1.702.459-3.404.676-5.108.239-1.875.464-3.752.694-5.628a27.564 27.564 0 0 0-.307-.073L48.585 99.601c.6-.348.879-.47 1.112-.651 2.321-1.803 4.64-3.611 6.95-5.429a445.362 445.362 0 0 0 6.105-4.864c.38-.31.72-.572.526-1.362-.458-1.862-.621-3.802-.831-5.719-.04-.359.163-.989.419-1.098 2.044-.867 4.128-1.638 6.369-2.579Zm71.913 67.152a371473.41 371473.41 0 0 0 19.848-34.617c-.496.142-.64.144-.731.215-4.045 3.196-8.06 6.431-12.139 9.582-1.451 1.121-2.58 2.161-1.798 4.273.407 1.097.437 2.351.542 3.543.064.729.285 1.561-.771 1.938a70.981 70.981 0 0 0-5.016 1.993c-.49.218-1.122.714-1.2 1.168-.371 2.156-.547 4.345-.843 6.515-.307 2.247-.698 4.482-1.003 6.73-.213 1.565-.342 3.143-.509 4.715l.179.051c1.141-1.969 2.282-3.937 3.441-6.106Zm-36.765-84.692-1.836 1.572c1.613 1.019 3.061 1.347 4.663-.039-.898-.555-1.794-1.108-2.827-1.533ZM68.958 83.377l.267-1.786c-1.048.449-1.929.805-2.786 1.212-.165.078-.351.371-.331.541.083.698.241 1.386.445 2.465.905-.837 1.653-1.528 2.405-2.432Zm-.266 42.495-1.783-1.39-.367 3.357 2.498.913c-.125-.969-.234-1.815-.348-2.88Zm73.232-.665c-1.32.687-1.395 1.881-1.277 3.164 3.254-1.065 2.851-.583 2.109-3.89-.251.214-.468.398-.832.726Zm1.226-42.623-2.371-1.152c-.435 2.441.122 2.695 2.088 3.998.121-.893.24-1.766.283-2.846Zm-39.572 66.01 1.578 1.27 2.127-1.684c-1.442-.95-2.933-1.514-4.518-.196.187.178.406.386.813.61ZM73.66 129.689l-.978-.637c-.079 1.399.536 1.841 3.148 2.273-.743-.547-1.388-1.021-2.17-1.636Zm-5.748-38.106.273-2.684c-2.101 1.057-.29 2.599-.6 3.841.109-.31.218-.621.327-1.157Z" 
    />
</svg>